<?xml version="1.0" encoding="utf-8"?>
<!-- Generator: Adobe Illustrator 24.1.1, SVG Export Plug-In . SVG Version: 6.00 Build 0)  -->
<svg version="1.1" xmlns="http://www.w3.org/2000/svg" xmlns:xlink="http://www.w3.org/1999/xlink" x="0px" y="0px"
	 viewBox="0 0 316.5 81.2" style="enable-background:new 0 0 316.5 81.2;" xml:space="preserve">
<style type="text/css">
	.st0{fill:#307694;}
</style>
<g id="Ebene_3">
	<path class="st0" d="M98.1,73.8V61.1H99l0.1,1.9c0.3-0.5,0.7-1,1.2-1.3c0.7-0.6,1.7-0.9,2.6-0.9c0.1,0,0.2,0,0.3,0s0.2,0,0.3,0
		l0.6,0.1l-0.2,1l-1-0.1l-0.1,0c-0.9,0-1.8,0.4-2.4,1c-0.7,0.8-1.1,1.7-1.3,2.7l0,8.3H98.1z M115.5,74c0.8,0,1.7-0.2,2.4-0.5
		c0.7-0.3,1.2-0.7,1.7-1.2l0.1-0.1l-0.6-0.8l-0.2,0.2c-0.4,0.5-1,0.8-1.6,1c-0.7,0.3-1.3,0.4-2.1,0.4c-1.2,0-2.3-0.5-3-1.5
		c-0.8-1-1.3-2.3-1.2-3.7v-0.7h9.1l0-1.1c0.1-1.4-0.3-2.8-1.3-3.9c-0.8-0.9-2-1.4-3.2-1.4l-0.2,0c-1.5,0-2.9,0.7-3.8,1.8
		c-1,1.3-1.6,2.9-1.5,4.5v0.7c-0.1,1.6,0.5,3.2,1.5,4.4C112.6,73.4,114,74,115.5,74C115.5,74,115.5,74,115.5,74z M111.2,66.2
		c0.1-1.1,0.6-2.2,1.3-3.1c0.7-0.8,1.8-1.3,2.9-1.3l0.1,0l0.2,0c1,0,1.9,0.4,2.5,1.1c0.7,0.9,1,1.9,1,3v0.2H111.2z M132.1,74.1
		c0.1,0,0.2,0,0.3,0c1.1,0,2.1-0.3,3-0.9c0.8-0.6,1.3-1.5,1.3-2.5c0-1-0.4-1.9-1.2-2.5c-1-0.7-2-1.1-3.2-1.3c-1-0.2-2.1-0.6-2.9-1.2
		c-0.4-0.4-0.7-0.9-0.7-1.5c0-0.6,0.3-1.2,0.8-1.6c0.7-0.5,1.4-0.7,2.2-0.7c0.1,0,0.2,0,0.3,0c0.1,0,0.1,0,0.2,0
		c0.9,0,1.7,0.3,2.4,0.8c0.6,0.4,0.9,1.2,0.9,1.9l0,0.2h0.7l0.2-0.1l0-0.2c0.1-1-0.4-2-1.2-2.7c-0.9-0.7-2-1-3.1-1
		c-0.1,0-0.2,0-0.2,0c-0.1,0-0.2,0-0.3,0c-1,0-2,0.3-2.9,0.9c-0.8,0.5-1.3,1.4-1.3,2.4c-0.1,0.9,0.3,1.8,1.1,2.4
		c1,0.6,2.1,1.1,3.3,1.2c1.1,0.1,2.1,0.6,2.9,1.2c0.5,0.4,0.7,1,0.7,1.6c0,0.7-0.3,1.3-0.9,1.7c-0.7,0.5-1.5,0.8-2.4,0.8
		c-0.1,0-0.4,0-0.4,0c-0.9,0-1.8-0.2-2.5-0.6c-0.7-0.4-1.1-1.1-1.1-1.9v-0.2h-0.7l-0.2,0.1l0,0.2c-0.1,1,0.4,2,1.2,2.5
		c0.9,0.7,2.1,1,3.2,1C132,74.1,132.1,74.1,132.1,74.1z M149.5,74c0.8,0,1.7-0.2,2.4-0.5c0.7-0.3,1.2-0.7,1.7-1.2l0.1-0.1l-0.6-0.8
		l-0.2,0.2c-0.4,0.5-1,0.8-1.6,1c-0.7,0.3-1.3,0.4-2.2,0.4c-1.2,0-2.3-0.5-3-1.5c-0.8-1-1.3-2.3-1.2-3.7v-0.7h9.1v-1.1
		c0.1-1.4-0.4-2.8-1.3-3.9c-0.8-0.9-2-1.4-3.2-1.4l-0.2,0c-1.5,0-2.9,0.7-3.8,1.8c-1.1,1.3-1.6,2.9-1.5,4.5v0.7
		c-0.1,1.6,0.5,3.2,1.5,4.4c0.9,1.1,2.3,1.8,3.8,1.8C149.4,74,149.5,74,149.5,74z M145.2,66.2c0.1-1.1,0.5-2.2,1.3-3.1
		c0.7-0.8,1.8-1.3,2.9-1.3l0.1,0c0.1,0,0.1,0,0.2,0c1,0,1.9,0.4,2.5,1.1c0.7,0.9,1,1.9,1,3v0.2H145.2z M164.9,74l0.2,0
		c1,0,2.1-0.3,3-0.7c0.6-0.3,1.2-0.8,1.6-1.3c0,0.1,0,0.3,0,0.4c0,0.3,0.1,0.7,0.2,1.2l0,0.2h1.1l-0.1-0.3c-0.1-0.4-0.2-0.8-0.2-1.2
		c0-0.4-0.1-0.8-0.1-1.2v-6.2c0.1-1.2-0.4-2.3-1.3-3.1c-1-0.7-2.1-1-3.3-1s-2.3,0.4-3.3,1c-0.8,0.6-1.3,1.7-1.2,2.7v0.2h0.9l0-0.2
		c0-0.7,0.3-1.5,0.9-1.9c0.7-0.5,1.5-0.8,2.4-0.8l0.2,0c0.1,0,0.2,0,0.2,0c0.9,0,1.7,0.3,2.4,0.8c0.6,0.6,1,1.4,0.9,2.3v1.6h-3.3
		c-0.1,0-0.2,0-0.3,0c-1.2,0-2.5,0.4-3.5,1c-1,0.6-1.5,1.6-1.6,2.8c0,1,0.3,2,1.1,2.7c0.7,0.6,1.7,1,2.6,1
		C164.8,74,164.9,74,164.9,74z M169.7,67.5l0,2.5c-0.3,0.9-1,1.7-1.8,2.2c-0.8,0.5-1.8,0.8-2.8,0.8l-0.3,0c-0.7,0-1.4-0.3-2-0.8
		c-0.5-0.5-0.8-1.2-0.8-1.9c0-0.8,0.5-1.6,1.2-2c0.9-0.6,1.9-0.9,2.9-0.9L169.7,67.5z M180.6,73.8l0-8.3c0.1-1,0.6-2,1.3-2.7
		c0.6-0.6,1.5-1,2.4-1l0.1,0l1,0.1l0.1-0.9l-0.6-0.1c-0.1,0-0.2,0-0.3,0s-0.2,0-0.2,0l-0.1,0c-0.9,0-1.7,0.3-2.5,0.8
		c-0.5,0.4-0.9,0.8-1.2,1.3l-0.1-1.9h-0.9v12.7H180.6z M196.8,74c1.2,0,2.3-0.4,3.2-1.1c1-0.7,1.5-1.9,1.4-3.1v-0.2h-0.9l0,0.2
		c0.1,0.9-0.3,1.8-1.1,2.4c-0.8,0.5-1.6,0.8-2.7,0.8c0,0-0.2,0-0.2,0c-1.2,0-2.2-0.6-2.9-1.5c-0.8-1.1-1.1-2.5-1.1-3.9v-0.5
		c-0.1-1.4,0.3-2.7,1.1-3.9c0.7-0.9,1.8-1.5,2.9-1.5c0.1,0,0.1,0,0.3,0c1,0,1.9,0.3,2.6,1c0.7,0.7,1.2,1.6,1.1,2.6l0,0.2h0.7
		l0.2-0.1l0-0.2c0.1-1.3-0.4-2.5-1.4-3.3c-0.9-0.8-2.1-1.2-3.2-1.2l-0.2,0l-0.2,0c-1.4,0-2.8,0.6-3.6,1.8c-1,1.3-1.4,2.9-1.4,4.6
		v0.5c-0.1,1.6,0.4,3.3,1.4,4.6c0.9,1.1,2.2,1.8,3.7,1.8L196.8,74z M218.8,73.8v-7.7c0.1-1.4-0.3-2.8-1-4c-0.7-0.8-1.8-1.3-2.8-1.3
		c-0.1,0-0.2,0-0.2,0l-0.1,0c-0.9,0-1.9,0.3-2.6,0.8c-0.5,0.4-1,0.8-1.4,1.4l0.1-7.4h-1l0,10.9c0,0.1,0,0.2,0,0.3v6.9h1l0-8
		c0.1-1.1,0.6-2.1,1.3-2.9c0.7-0.7,1.7-1.1,2.6-1.1c0.1,0,0.1,0,0.2,0l0.1,0c0.8,0,1.6,0.3,2.1,0.9c0.7,1,1,2.1,0.9,3.3v7.8H218.8z
		 M310.9,74l0.2,0c1.2,0,2.4-0.3,3.5-0.8c0.8-0.4,1.6-1,2.1-1.7l0-0.1l0-5.9h-6.1v1h5.1V71c-0.4,0.6-1,1.1-1.6,1.4
		c-0.9,0.4-1.9,0.6-2.9,0.6l-0.3,0l-0.2,0c-1.5,0-2.9-0.7-3.9-1.8c-1.1-1.3-1.6-3-1.5-4.7v-2.7c-0.1-1.6,0.5-3.2,1.5-4.5
		c0.9-1.1,2.3-1.7,3.7-1.7l0.2,0c0.1,0,0.2,0,0.4,0c1.2,0,2.4,0.4,3.4,1.2c0.9,0.8,1.3,1.8,1.3,3l0,0.2h0.7l0.2-0.1l0-0.2
		c0.1-1.4-0.5-2.8-1.6-3.7c-1.1-0.9-2.6-1.4-4-1.4c-0.1,0-0.2,0-0.3,0l-0.2,0c-1.7,0-3.4,0.8-4.5,2.1c-1.2,1.5-1.8,3.3-1.8,5.2v2.7
		c-0.1,2,0.6,3.9,1.8,5.4c1.1,1.3,2.8,2.1,4.6,2.1L310.9,74z M269,73.8l0-8.1c0.1-1,0.6-2,1.2-2.8c0.7-0.7,1.6-1.1,2.5-1.1
		c0.1,0,0.2,0,0.3,0l0.1,0c0.9,0,1.7,0.4,2.3,1c0.7,1.1,1.1,2.4,1,3.7v7.2h1v-7.2c0.1-1.5-0.3-3.1-1.1-4.3c-0.7-0.9-1.8-1.4-3-1.4
		c-0.1,0-0.2,0-0.2,0l-0.1,0c-1,0-2,0.3-2.7,0.9c-0.6,0.5-1.1,1.2-1.5,1.9c-0.2-0.7-0.7-1.4-1.3-2c-0.7-0.5-1.6-0.8-2.5-0.8l-0.3,0
		c-0.9,0-1.8,0.3-2.5,0.8c-0.5,0.4-1,0.8-1.3,1.4l-0.1-1.9l-1,0v12.7h1l0-8.2c0.1-1,0.6-1.9,1.2-2.7c0.6-0.7,1.5-1,2.5-1
		c0.1,0,0.2,0,0.3,0l0.1,0c0.9,0,1.7,0.4,2.2,1c0.7,1,1.1,2.3,1,3.6c0,0.1,0,0.3,0,0.4v6.9H269z M291.1,74c1.4,0,2.6-0.7,3.4-1.8
		c0.9-1.4,1.4-3,1.3-4.6l0-0.3c0.1-1.7-0.3-3.3-1.3-4.8c-0.8-1.1-2.1-1.8-3.5-1.8l-0.2,0c-0.9,0-1.8,0.2-2.6,0.7
		c-0.5,0.3-1,0.8-1.4,1.2v-7.1h-1l0,9.3l0,0.1v8.7h0.9l0.1-1.5c0.4,0.5,0.9,0.9,1.4,1.2c0.8,0.4,1.6,0.6,2.5,0.6L291.1,74z M291,73
		l-0.2,0c-0.8,0-1.7-0.2-2.4-0.7c-0.7-0.4-1.2-1.1-1.4-1.7l0-5.8c0.3-0.8,0.7-1.5,1.4-2.1c0.7-0.5,1.5-0.8,2.4-0.8
		c0.1,0,0.1,0,0.2,0l0.1,0c1.1,0,2.1,0.6,2.7,1.5c0.7,1.2,1,2.6,1,4.1l0,0.2c0.1,1.4-0.3,2.8-1,3.9c-0.6,0.9-1.6,1.4-2.6,1.4
		C291.2,73,291,73,291,73z M250.6,73.8v-17h-1v8h-10.2v-8h-1v17h1v-7.9h10.2v7.9H250.6z"/>
</g>
<g id="Ebene_2">
	<path class="st0" d="M119,37.7h-14.3l-3.3,9.1h-2.8l11.9-32.5h2.5L125,46.8h-2.8L119,37.7z M105.6,35.3h12.5l-6.2-17.2h-0.1
		L105.6,35.3z M153.7,16.6h-11.1v30.2H140V16.6h-11.5v-2.3h25.2V16.6z M185.9,16.6h-11.1v30.2h-2.7V16.6h-11.4v-2.3h25.2V16.6z
		 M210.8,37.7h-14.3l-3.3,9.1h-2.8l11.9-32.5h2.6l11.9,32.5H214L210.8,37.7z M197.4,35.3h12.5l-6.2-17.2h-0.1L197.4,35.3z
		 M248.4,36.6v0.1c0.2,2.9-1,5.7-3.1,7.6c-2.4,2-5.4,3-8.4,2.9c-3.4,0.1-6.6-1.3-8.8-3.9c-2.3-2.9-3.5-6.5-3.3-10.1v-5.3
		c-0.2-3.7,1-7.3,3.3-10.1c2.1-2.6,5.4-4.1,8.8-3.9c3.1-0.2,6.1,0.8,8.5,2.8c2.2,1.9,3.3,4.8,3.1,7.7v0.1H246
		c0.1-2.3-0.7-4.5-2.4-6.1c-1.8-1.6-4.2-2.3-6.6-2.2c-2.7-0.1-5.2,1.2-6.8,3.3c-1.8,2.4-2.7,5.4-2.6,8.5v5.3c-0.1,3,0.8,6.1,2.6,8.5
		c1.6,2.1,4.1,3.4,6.8,3.3c2.4,0.1,4.8-0.6,6.6-2.1c1.7-1.6,2.6-3.9,2.4-6.2L248.4,36.6z M276.9,37.7h-14.3l-3.3,9.1h-2.8l11.9-32.5
		h2.5l11.9,32.5h-2.8L276.9,37.7z M263.4,35.3H276l-6.2-17.2h-0.1L263.4,35.3z M316.3,46.8h-2.7L295.2,19H295v27.8h-2.7V14.3h2.7
		L313.5,42h0.1V14.3h2.7V46.8z"/>
</g>
<g id="Ebene_1">
	<g id="Ebene_2_1_">
		<g id="Ebene_2-2">
			<path class="st0" d="M40.6,81.2c-8.7,0-17.3-2.8-24.3-8C9.5,68.1,4.4,60.9,1.9,52.8l-0.1-0.2h2.7v0.1c6.7,19.9,28.3,30.7,48.2,24
				c19.9-6.7,30.7-28.3,24-48.2C70,8.6,48.5-2.2,28.5,4.5c-17.8,6-28.6,24-25.4,42.5h12.2c1.6,0,2.9-1.3,2.9-2.9l0,0V18.9
				c0-3,2.4-5.5,5.5-5.5h5.3c3,0,5.5,2.5,5.5,5.5v42.5c0,1.6,1.3,2.9,2.9,2.9h6c1.6,0,2.9-1.3,2.9-2.9V18.9c0-3,2.4-5.5,5.5-5.5h5.9
				c3,0,5.5,2.5,5.5,5.5v25.3c0,1.6,1.3,2.9,2.9,2.9h3.8v2.6h-3.8c-3,0-5.5-2.4-5.5-5.5V18.9c0-1.6-1.3-2.9-2.9-2.9c0,0,0,0,0,0
				h-5.9c-1.6,0-2.9,1.3-2.9,2.9v0v42.6c0,3-2.4,5.5-5.5,5.5h-6c-3,0-5.5-2.4-5.5-5.5l0,0V18.9c0-1.6-1.2-2.9-2.8-2.9c0,0,0,0,0,0
				h-5.3c-1.6,0-2.9,1.3-2.9,2.9v25.3c0,3-2.4,5.5-5.5,5.5H1l-0.2-1C0.3,46,0,43.3,0,40.7C0,18.2,18.2,0.1,40.6,0.1
				s40.6,18.2,40.6,40.6C81.2,63.1,63,81.3,40.6,81.2L40.6,81.2z"/>
		</g>
	</g>
</g>
</svg>
